<svg xmlns="http://www.w3.org/2000/svg" viewBox="0 0 362 100" width="362" height="100" role="img" aria-label="BYBO">
  <title>BYBO</title>
  <path d="M5 0V100M5 5H30A22.5 22.5 0 0 1 30 50H5M5 50H32A22.5 22.5 0 0 1 32 95H5" transform="translate(0 0)" stroke="#111116" stroke-width="10" stroke-linecap="butt" stroke-linejoin="round" fill="none"/><path d="M5 0L35 50L65 0M35 50V100" transform="translate(84 0)" stroke="#111116" stroke-width="10" stroke-linecap="butt" stroke-linejoin="round" fill="none"/><path d="M5 0V100M5 5H30A22.5 22.5 0 0 1 30 50H5M5 50H32A22.5 22.5 0 0 1 32 95H5" transform="translate(178 0)" stroke="#111116" stroke-width="10" stroke-linecap="butt" stroke-linejoin="round" fill="none"/><path d="M95 50A45 45 0 1 1 5 50A45 45 0 1 1 95 50" transform="translate(262 0)" stroke="#111116" stroke-width="10" stroke-linecap="butt" stroke-linejoin="round" fill="none"/>
</svg>
